<?xml version="1.0" encoding="UTF-8"?>
<svg viewBox="0 0 494 426" version="1.1" xmlns="http://www.w3.org/2000/svg" xmlns:xlink="http://www.w3.org/1999/xlink">
    <g id="Page-1" stroke="none" stroke-width="1" fill="none" fill-rule="evenodd">
        <g id="A11Y-(1)" transform="translate(0.000000, -2.000000)" fill-rule="nonzero">
            <polygon id="Shape" fill="#9E0808" points="221.5 2.2 131.3 2.2 145.2 50.3 170.5 50.3 170.5 137.7 206.5 262.2 221.5 262.2"></polygon>
            <polyline id="Shape" fill="#FFFFFF" points="328.5 2.2 379.5 2.2 379.5 262.2 328.5 262.2 328.5 50.3"></polyline>
            <polygon id="Shape" fill="#FFFFFF" points="425.6 14.7 343.9 146.4 357.3 221.6 493.3 2.2 433.3 2.2"></polygon>
            <polygon id="Shape" fill="#9E0808" points="229.8 50.3 229.8 2.2 320.3 2.2 320.3 262.2 269.3 262.2 269.3 50.3"></polygon>
            <g id="Group" transform="translate(0.000000, 2.000000)" fill="#FFFFFF">
                <polygon id="Shape" points="0.6 260.2 55.9 260.2 68.8 210.7 94.1 210.7 52.1 75.7"></polygon>
                <path d="M143.4,260.2 L198.7,260.2 L123.4,0.2 L73.1,0.2 L52.1,75.7 L94.1,210.7 L129.8,210.7 L143.4,260.2 Z M82,160.4 L98.5,76.4 L99.2,76.4 L115.8,160.4 L82,160.4 Z" id="Shape"></path>
            </g>
            <g id="Group" transform="translate(0.000000, 275.000000)" fill="#FFFFFF">
                <polygon id="Shape" points="56.5 31.4 56.5 149.9 25.7 149.9 25.7 31.4 0.5 31.4 0.5 3 81.7 3 81.7 31.4"></polygon>
                <path d="M92.8,76.4 C92.8,64.9 93.9,54.5 96.2,45.2 C98.5,35.9 101.9,27.9 106.5,21.3 C111.1,14.7 116.8,9.6 123.7,6 C130.6,2.4 138.6,0.6 147.8,0.6 C157,0.6 165,2.4 171.9,6 C178.8,9.6 184.5,14.7 189.1,21.3 C193.7,27.9 197.1,35.9 199.4,45.2 C201.7,54.5 202.8,65 202.8,76.4 C202.8,87.9 201.6,98.3 199.4,107.6 C197.1,116.9 193.6,124.9 189.1,131.5 C184.5,138.1 178.8,143.2 171.9,146.8 C165,150.4 157,152.2 147.8,152.2 C138.6,152.2 130.6,150.4 123.7,146.8 C116.8,143.2 111.1,138.1 106.5,131.5 C101.9,124.9 98.5,116.9 96.2,107.6 C93.9,98.3 92.8,87.9 92.8,76.4 Z M124.4,76.4 C124.4,85.1 124.9,92.4 125.8,98.4 C126.7,104.4 128.2,109.3 130.2,113.1 C132.2,116.9 134.6,119.6 137.6,121.3 C140.6,123 144,123.8 147.9,123.8 C151.8,123.8 155.3,123 158.2,121.3 C161.2,119.6 163.6,116.9 165.6,113.1 C167.6,109.3 169,104.4 170,98.4 C170.9,92.4 171.4,85 171.4,76.4 C171.4,67.7 170.9,60.4 170,54.4 C169.1,48.4 167.6,43.5 165.6,39.7 C163.6,35.9 161.2,33.2 158.2,31.5 C155.2,29.8 151.8,29 147.9,29 C144,29 140.5,29.8 137.6,31.5 C134.6,33.2 132.2,35.9 130.2,39.7 C128.2,43.5 126.8,48.4 125.8,54.4 C124.9,60.4 124.4,67.7 124.4,76.4 Z" id="Shape"></path>
                <path d="M321.4,3 L321.4,107.7 C321.4,114.2 320.5,120.2 318.8,125.7 C317,131.2 314.2,135.9 310.3,139.8 C306.4,143.7 301.3,146.8 295,149 C288.7,151.2 281,152.3 272,152.3 C262.9,152.3 255.3,151.2 249,149 C242.7,146.8 237.6,143.7 233.7,139.8 C229.8,135.9 226.9,131.2 225.2,125.7 C223.4,120.2 222.6,114.2 222.6,107.7 L222.6,3 L253.4,3 L253.4,102.8 C253.4,110.1 254.8,115.4 257.6,118.8 C260.4,122.2 265.2,123.9 272.1,123.9 C279,123.9 283.8,122.2 286.6,118.8 C289.4,115.4 290.8,110.1 290.8,102.8 L290.8,3 L321.4,3 Z" id="Shape"></path>
                <path d="M346.8,3 L395.5,3 C402.1,3 408.1,4.3 413.5,6.9 C418.8,9.5 423.4,12.9 427.3,17.2 C431.2,21.5 434.1,26.5 436.2,32.2 C438.3,37.9 439.3,43.9 439.3,50.3 C439.3,54.4 438.7,58.6 437.6,63.1 C436.4,67.6 434.7,71.7 432.2,75.6 C429.8,79.5 426.6,82.7 422.8,85.4 C418.9,88.1 414.3,89.9 408.9,90.7 L445.8,149.9 L410.5,149.9 L378,92.7 L377.6,92.7 L377.6,149.9 L346.8,149.9 L346.8,3 L346.8,3 Z M377.6,67.9 L387.7,67.9 C394.1,67.9 399,66.4 402.4,63.3 C405.8,60.3 407.6,55.7 407.6,49.6 C407.6,43.5 405.9,38.9 402.4,35.9 C399,32.9 394,31.3 387.7,31.3 L377.6,31.3 L377.6,67.9 Z" id="Shape"></path>
            </g>
        </g>
    </g>
</svg>
