<?xml version="1.0" encoding="UTF-8"?>
<svg width="494px" height="428px" viewBox="0 0 494 428" version="1.1" xmlns="http://www.w3.org/2000/svg" xmlns:xlink="http://www.w3.org/1999/xlink">
    <!-- Generator: Sketch 47.1 (45422) - http://www.bohemiancoding.com/sketch -->
    <title>A11Y</title>
    <desc>Created with Sketch.</desc>
    <defs></defs>
    <g id="Page-1" stroke="none" stroke-width="1" fill="none" fill-rule="evenodd">
        <g id="A11Y" fill-rule="nonzero">
            <g id="Layer_3">
                <g id="Group">
                    <polyline id="Shape" fill="#FFFFFF" points="328.9 0.9 379.9 0.9 379.9 260.9 328.9 260.9 328.9 49"></polyline>
                    <polygon id="Shape" fill="#FFFFFF" points="426.1 13.4 344.3 145.1 357.7 220.3 493.8 0.9 433.8 0.9"></polygon>
                    <path d="M433.8,0.9 L493.8,0.9" id="Shape" fill="#000000"></path>
                    <polygon id="Shape" fill="#F29C1F" points="131.5 50.3 131.5 2.2 222 2.2 222 262.2 171 262.2 171 50.3"></polygon>
                    <polygon id="Shape" fill="#F29C1F" points="230.2 49 230.2 0.9 320.7 0.9 320.7 260.9 269.7 260.9 269.7 49"></polygon>
                    <path d="M199.1,261.5 L143.8,261.5 L130.2,212 L69.2,212 L56.3,261.5 L1,261.5 L73.5,1.5 L123.8,1.5 L199.1,261.5 Z M99.6,77.7 L98.9,77.7 L82.4,161.7 L116.2,161.7 L99.6,77.7 Z" id="Shape" fill="#FFFFFF"></path>
                    <g transform="translate(0.000000, 275.000000)" id="Shape" fill="#FFFFFF">
                        <polygon points="56.9 31.4 56.9 149.9 26.1 149.9 26.1 31.4 0.9 31.4 0.9 3 82.1 3 82.1 31.4"></polygon>
                        <path d="M93.2,76.4 C93.2,64.9 94.3,54.5 96.6,45.2 C98.9,35.9 102.3,27.9 106.9,21.3 C111.5,14.7 117.2,9.6 124.1,6 C131,2.4 139,0.6 148.2,0.6 C157.4,0.6 165.4,2.4 172.3,6 C179.2,9.6 184.9,14.7 189.5,21.3 C194.1,27.9 197.5,35.9 199.8,45.2 C202.1,54.5 203.2,65 203.2,76.4 C203.2,87.9 202,98.3 199.8,107.6 C197.5,116.9 194,124.9 189.5,131.5 C184.9,138.1 179.2,143.2 172.3,146.8 C165.4,150.4 157.4,152.2 148.2,152.2 C139,152.2 131,150.4 124.1,146.8 C117.2,143.2 111.5,138.1 106.9,131.5 C102.3,124.9 98.9,116.9 96.6,107.6 C94.4,98.3 93.2,87.9 93.2,76.4 Z M124.9,76.4 C124.9,85.1 125.4,92.4 126.3,98.4 C127.2,104.4 128.7,109.3 130.7,113.1 C132.7,116.9 135.1,119.6 138.1,121.3 C141.1,123 144.5,123.8 148.4,123.8 C152.3,123.8 155.8,123 158.7,121.3 C161.7,119.6 164.1,116.9 166.1,113.1 C168.1,109.3 169.5,104.4 170.5,98.4 C171.4,92.4 171.9,85 171.9,76.4 C171.9,67.7 171.4,60.4 170.5,54.4 C169.6,48.4 168.1,43.5 166.1,39.7 C164.1,35.9 161.7,33.2 158.7,31.5 C155.7,29.8 152.3,29 148.4,29 C144.5,29 141,29.8 138.1,31.5 C135.1,33.2 132.7,35.9 130.7,39.7 C128.7,43.5 127.3,48.4 126.3,54.4 C125.3,60.4 124.9,67.7 124.9,76.4 Z"></path>
                        <path d="M321.9,3 L321.9,107.7 C321.9,114.2 321,120.2 319.3,125.7 C317.5,131.2 314.7,135.9 310.8,139.8 C306.9,143.7 301.8,146.8 295.5,149 C289.2,151.2 281.5,152.3 272.5,152.3 C263.4,152.3 255.8,151.2 249.5,149 C243.2,146.8 238.1,143.7 234.2,139.8 C230.3,135.9 227.4,131.2 225.7,125.7 C223.9,120.2 223.1,114.2 223.1,107.7 L223.1,3 L253.9,3 L253.9,102.8 C253.9,110.1 255.3,115.4 258.1,118.8 C260.9,122.2 265.7,123.9 272.6,123.9 C279.5,123.9 284.3,122.2 287.1,118.8 C289.9,115.4 291.3,110.1 291.3,102.8 L291.3,3 L321.9,3 Z"></path>
                        <path d="M347.2,3 L395.9,3 C402.5,3 408.5,4.3 413.9,6.9 C419.2,9.5 423.8,12.9 427.7,17.2 C431.6,21.5 434.5,26.5 436.6,32.2 C438.7,37.9 439.7,43.9 439.7,50.3 C439.7,54.4 439.1,58.6 438,63.1 C436.8,67.6 435.1,71.7 432.6,75.6 C430.2,79.5 427,82.7 423.2,85.4 C419.3,88.1 414.7,89.9 409.3,90.7 L446.2,149.9 L410.9,149.9 L378.4,92.7 L378,92.7 L378,149.9 L347.2,149.9 L347.2,3 L347.2,3 Z M378.1,67.9 L388.2,67.9 C394.6,67.9 399.5,66.4 402.9,63.3 C406.3,60.3 408.1,55.7 408.1,49.6 C408.1,43.5 406.4,38.9 402.9,35.9 C399.5,32.9 394.5,31.3 388.2,31.3 L378.1,31.3 L378.1,67.9 Z"></path>
                    </g>
                </g>
            </g>
        </g>
    </g>
</svg>