<svg width="493" height="447" xmlns="http://www.w3.org/2000/svg"><g fill="none" fill-rule="evenodd"><path fill="#C50A0A" fill-rule="nonzero" d="M220 0h-90l13.87 48.1h25.243v87.4l35.92 124.5H220z"/><path d="M379.062 86.813L425.218 12.5l7.71-12.5H493L379.062 183.586V260H328V0h51.062v86.813z" fill="#FFF" fill-rule="nonzero"/><path fill="#C50A0A" fill-rule="nonzero" d="M229 48.1V0h91v260h-51.282V48.1z"/><path d="M51.474 75.5L72.464 0h50.274L198 260h-55.272l-13.593-49.5H68.166L55.272 260H0L51.474 75.5zm29.885 84.7h33.783l-16.592-84h-.7l-16.491 84z" fill="#FFF" fill-rule="nonzero"/><path d="M51.543 317.558V443H27.117V317.558H0v-21.114h79.074v21.114H51.543zm139.59 51.957c0 11.592-1.207 22.114-3.623 31.567-2.415 9.454-5.899 17.561-10.453 24.323-4.554 6.762-10.108 12.006-16.663 15.732-6.556 3.726-13.904 5.589-22.046 5.589-8.28 0-15.663-1.863-22.149-5.589-6.486-3.726-12.006-8.97-16.56-15.732-4.554-6.762-8.038-14.87-10.453-24.322-2.416-9.454-3.623-19.976-3.623-31.568 0-11.592 1.173-22.08 3.519-31.464s5.796-17.457 10.35-24.219c4.554-6.762 10.108-11.971 16.663-15.628 6.556-3.658 13.973-5.486 22.253-5.486 8.142 0 15.49 1.828 22.045 5.486 6.556 3.657 12.11 8.866 16.664 15.628 4.554 6.762 8.038 14.835 10.454 24.219 2.415 9.384 3.622 19.872 3.622 31.464zm-25.668 0c0-7.452-.586-14.455-1.76-21.01-1.173-6.556-2.897-12.213-5.175-16.974-2.277-4.762-5.105-8.522-8.487-11.282-3.38-2.76-7.279-4.14-11.695-4.14-4.554 0-8.521 1.38-11.903 4.14-3.38 2.76-6.21 6.52-8.486 11.281-2.278 4.762-3.968 10.42-5.072 16.975-1.104 6.555-1.656 13.558-1.656 21.01 0 7.452.552 14.455 1.656 21.01 1.104 6.556 2.794 12.248 5.072 17.078 2.277 4.83 5.105 8.625 8.486 11.385 3.382 2.76 7.349 4.14 11.903 4.14s8.521-1.38 11.902-4.14c3.382-2.76 6.21-6.555 8.488-11.385 2.277-4.83 3.967-10.522 5.071-17.077 1.104-6.556 1.656-13.559 1.656-21.011zm139.59 21.528c0 7.728-.828 14.973-2.484 21.735-1.656 6.762-4.347 12.661-8.073 17.698-3.726 5.038-8.521 9.005-14.387 11.903-5.865 2.898-13.006 4.347-21.424 4.347s-15.525-1.449-21.321-4.347c-5.796-2.898-10.522-6.865-14.18-11.903-3.657-5.037-6.278-10.936-7.865-17.698-1.588-6.762-2.381-14.007-2.381-21.735v-94.599h24.84v92.322c0 4.554.31 8.935.931 13.144.622 4.21 1.725 7.901 3.313 11.075 1.587 3.174 3.76 5.692 6.52 7.555 2.76 1.864 6.279 2.795 10.557 2.795 4.278 0 7.797-.931 10.557-2.794 2.76-1.864 4.933-4.382 6.52-7.556 1.588-3.174 2.691-6.865 3.313-11.075.62-4.209.931-8.59.931-13.144v-92.322h24.633v94.599zM394.137 443l-22.77-62.514h-13.869V443h-24.012V296.444H375.3c6.072 0 11.661.793 16.767 2.38 5.106 1.588 9.487 4.106 13.144 7.556 3.658 3.45 6.521 7.797 8.591 13.041 2.07 5.244 3.105 11.523 3.105 18.837 0 5.658-.724 10.66-2.173 15.007-1.45 4.348-3.278 8.039-5.486 11.075-2.208 3.036-4.657 5.485-7.349 7.349-2.69 1.863-5.347 3.139-7.969 3.829L420.219 443h-26.082zm-1.656-103.5c0-4.416-.621-8.073-1.863-10.971-1.242-2.898-2.863-5.175-4.865-6.831a17.996 17.996 0 0 0-6.727-3.519 27.733 27.733 0 0 0-7.452-1.035h-14.076v45.126h14.076c6.072 0 11.074-1.897 15.007-5.692 3.934-3.796 5.9-9.488 5.9-17.078z" fill="#FFF"/></g></svg>